<?xml version="1.0" encoding="UTF-8" standalone="no"?>
<!DOCTYPE svg PUBLIC "-//W3C//DTD SVG 1.1//EN" "http://www.w3.org/Graphics/SVG/1.1/DTD/svg11.dtd">
<!-- Generated by Microsoft Visio, SVG Export restricted-cone-nat.svg Page-2 -->
<svg xmlns="http://www.w3.org/2000/svg" xmlns:xlink="http://www.w3.org/1999/xlink" xmlns:ev="http://www.w3.org/2001/xml-events"
		xmlns:v="http://schemas.microsoft.com/visio/2003/SVGExtensions/" width="7.33071in" height="3.16929in"
		viewBox="0 0 527.811 228.189" xml:space="preserve" color-interpolation-filters="sRGB" class="st27">
	<v:documentProperties v:langID="1033" v:metric="true" v:viewMarkup="false">
		<v:userDefs>
			<v:ud v:nameU="msvNoAutoConnect" v:val="VT0(1):26"/>
		</v:userDefs>
	</v:documentProperties>

	<style type="text/css">
	<![CDATA[
		.st1 {fill:#ffffff;stroke:#083b66;stroke-linecap:round;stroke-linejoin:round;stroke-width:1}
		.st2 {fill:#083b66;font-family:Verdana;font-size:1.00001em}
		.st3 {fill:#ffffff;stroke:#7f7f7f;stroke-linecap:round;stroke-linejoin:round;stroke-width:1}
		.st4 {fill:#595959;font-family:Verdana;font-size:1.00001em}
		.st5 {marker-end:url(#mrkr13-24);marker-start:url(#mrkr10-22);stroke:#00b050;stroke-linecap:round;stroke-linejoin:round;stroke-width:2}
		.st6 {fill:#00b050;fill-opacity:1;stroke:#00b050;stroke-opacity:1;stroke-width:0.44247787610619}
		.st7 {marker-end:url(#mrkr13-33);marker-start:url(#mrkr10-31);stroke:#d8d8d8;stroke-linecap:round;stroke-linejoin:round;stroke-width:2}
		.st8 {fill:#d8d8d8;fill-opacity:1;stroke:#d8d8d8;stroke-opacity:1;stroke-width:0.44247787610619}
		.st9 {fill:#ebf1df;stroke:#00b050;stroke-linecap:round;stroke-linejoin:round;stroke-width:2}
		.st10 {fill:#00b050;font-family:Verdana;font-size:1.5em}
		.st11 {fill:#f2f2f2;stroke:#d8d8d8;stroke-linecap:round;stroke-linejoin:round;stroke-width:2}
		.st12 {fill:#595959;font-family:Verdana;font-size:1.5em}
		.st13 {fill:#dbeef3;stroke:#083b66;stroke-linecap:round;stroke-linejoin:round;stroke-width:2}
		.st14 {fill:#083b66;font-family:Verdana;font-size:1.5em}
		.st15 {marker-end:url(#mrkr10-58);marker-start:url(#mrkr13-56);stroke:#ea700d;stroke-linecap:round;stroke-linejoin:round;stroke-width:2}
		.st16 {fill:#ea700d;fill-opacity:1;stroke:#ea700d;stroke-opacity:1;stroke-width:0.44247787610619}
		.st17 {fill:#fcebdd;stroke:#ea700d;stroke-linecap:round;stroke-linejoin:round;stroke-width:2}
		.st18 {fill:#000000;font-family:Verdana;font-size:1.5em;font-weight:bold}
		.st19 {font-size:1em;font-weight:normal}
		.st20 {fill:none;stroke:none;stroke-linecap:round;stroke-linejoin:round;stroke-width:0.75}
		.st21 {fill:#ea700d;font-family:Verdana;font-size:1.00001em}
		.st22 {fill:#fef7f1;stroke:#ea700d;stroke-linecap:round;stroke-linejoin:round;stroke-width:1.5}
		.st23 {fill:#000000;font-family:Verdana;font-size:1.00001em;font-weight:bold}
		.st24 {font-size:1em}
		.st25 {fill:none;stroke:none;stroke-linecap:round;stroke-linejoin:round;stroke-width:1}
		.st26 {fill:#ec5252;stroke:#ec5252;stroke-linecap:butt;stroke-width:0.75}
		.st27 {fill:none;fill-rule:evenodd;font-size:12px;overflow:visible;stroke-linecap:square;stroke-miterlimit:3}
	]]>
	</style>

	<defs id="Markers">
		<g id="lend10">
			<path
					d="M 0 0.75 C -0.414214 0.75 -0.75 0.414214 -0.75 0 -0.75 -0.414214 -0.414214 -0.75 0 -0.75 0.414214 -0.75 0.75 -0.414214 0.75 0 0.75 0.414214 0.414214 0.75 0 0.75 Z "
					style="stroke:none"/>
		</g>
		<marker id="mrkr10-22" class="st6" v:arrowType="10" v:arrowSize="2" v:setback="1.515" refX="1.515" orient="auto"
				markerUnits="strokeWidth" overflow="visible">
			<use xlink:href="#lend10" transform="scale(2.26) "/>
		</marker>
		<g id="lend13">
			<path d="M 3 1 L 0 0 L 3 -1 L 3 1 " style="stroke:none"/>
		</g>
		<marker id="mrkr13-24" class="st6" v:arrowType="13" v:arrowSize="2" v:setback="6.78" refX="-6.78" orient="auto"
				markerUnits="strokeWidth" overflow="visible">
			<use xlink:href="#lend13" transform="scale(-2.26,-2.26) "/>
		</marker>
		<marker id="mrkr10-31" class="st8" v:arrowType="10" v:arrowSize="2" v:setback="1.515" refX="1.515" orient="auto"
				markerUnits="strokeWidth" overflow="visible">
			<use xlink:href="#lend10" transform="scale(2.26) "/>
		</marker>
		<marker id="mrkr13-33" class="st8" v:arrowType="13" v:arrowSize="2" v:setback="6.78" refX="-6.78" orient="auto"
				markerUnits="strokeWidth" overflow="visible">
			<use xlink:href="#lend13" transform="scale(-2.26,-2.26) "/>
		</marker>
		<marker id="mrkr13-56" class="st16" v:arrowType="13" v:arrowSize="2" v:setback="6.6" refX="6.6" orient="auto"
				markerUnits="strokeWidth" overflow="visible">
			<use xlink:href="#lend13" transform="scale(2.26) "/>
		</marker>
		<marker id="mrkr10-58" class="st16" v:arrowType="10" v:arrowSize="2" v:setback="1.515" refX="-1.515" orient="auto"
				markerUnits="strokeWidth" overflow="visible">
			<use xlink:href="#lend10" transform="scale(-2.26,-2.26) "/>
		</marker>
	</defs>
	<g v:mID="4" v:index="2" v:groupContext="foregroundPage">
		<title>Page-2</title>
		<v:pageProperties v:drawingScale="0.0393701" v:pageScale="0.0393701" v:drawingUnits="24" v:shadowOffsetX="8.50394"
				v:shadowOffsetY="-8.50394"/>
		<v:layer v:name="rect" v:index="0" v:snap="false" v:glue="false"/>
		<v:layer v:name="Flowchart" v:index="1"/>
		<v:layer v:name="Connector" v:index="2"/>
		<g id="shape62-1" v:mID="62" v:groupContext="shape" transform="translate(65.8669,-58.6771)">
			<title>Rectangle.62</title>
			<desc>Port 8001</desc>
			<v:userDefs>
				<v:ud v:nameU="visVersion" v:val="VT0(15):26"/>
			</v:userDefs>
			<v:textBlock v:margins="rect(4,4,4,4)" v:tabSpace="42.5197"/>
			<v:textRect cx="36.4639" cy="215.858" width="72.93" height="24.6614"/>
			<rect x="0" y="203.528" width="72.9277" height="24.6614" rx="2.83465" ry="2.83465" class="st1"/>
			<text x="6.91" y="219.46" class="st2" v:langID="1033"><v:paragraph v:horizAlign="1"/><v:tabList/>Port 8001</text>		</g>
		<g id="shape63-4" v:mID="63" v:groupContext="shape" transform="translate(384.764,-139.323)">
			<title>Rectangle.63</title>
			<desc>Port 80</desc>
			<v:userDefs>
				<v:ud v:nameU="visVersion" v:val="VT0(15):26"/>
			</v:userDefs>
			<v:textBlock v:margins="rect(4,4,4,4)" v:tabSpace="42.5197"/>
			<v:textRect cx="36.4639" cy="215.858" width="72.93" height="24.6614"/>
			<rect x="0" y="203.528" width="72.9277" height="24.6614" rx="2.83465" ry="2.83465" class="st1"/>
			<text x="14.54" y="219.46" class="st2" v:langID="1033"><v:paragraph v:horizAlign="1"/><v:tabList/>Port 80</text>		</g>
		<g id="shape64-7" v:mID="64" v:groupContext="shape" transform="translate(384.764,-109.984)">
			<title>Rectangle.64</title>
			<desc>Port 81</desc>
			<v:userDefs>
				<v:ud v:nameU="visVersion" v:val="VT0(15):26"/>
			</v:userDefs>
			<v:textBlock v:margins="rect(4,4,4,4)" v:tabSpace="42.5197"/>
			<v:textRect cx="36.4639" cy="215.858" width="72.93" height="24.6614"/>
			<rect x="0" y="203.528" width="72.9277" height="24.6614" rx="2.83465" ry="2.83465" class="st1"/>
			<text x="14.54" y="219.46" class="st2" v:langID="1033"><v:paragraph v:horizAlign="1"/><v:tabList/>Port 81</text>		</g>
		<g id="shape65-10" v:mID="65" v:groupContext="shape" transform="translate(384.378,-31.6063)">
			<title>Rectangle.65</title>
			<desc>Port 80</desc>
			<v:userDefs>
				<v:ud v:nameU="visVersion" v:val="VT0(15):26"/>
			</v:userDefs>
			<v:textBlock v:margins="rect(4,4,4,4)" v:tabSpace="42.5197"/>
			<v:textRect cx="36.4639" cy="215.858" width="72.93" height="24.6614"/>
			<rect x="0" y="203.528" width="72.9277" height="24.6614" rx="2.83465" ry="2.83465" class="st3"/>
			<text x="14.54" y="219.46" class="st4" v:langID="1033"><v:paragraph v:horizAlign="1"/><v:tabList/>Port 80</text>		</g>
		<g id="shape66-13" v:mID="66" v:groupContext="shape" transform="translate(384.378,-2.26772)">
			<title>Rectangle.66</title>
			<desc>Port 81</desc>
			<v:userDefs>
				<v:ud v:nameU="visVersion" v:val="VT0(15):26"/>
			</v:userDefs>
			<v:textBlock v:margins="rect(4,4,4,4)" v:tabSpace="42.5197"/>
			<v:textRect cx="36.4639" cy="215.858" width="72.93" height="24.6614"/>
			<rect x="0" y="203.528" width="72.9277" height="24.6614" rx="2.83465" ry="2.83465" class="st3"/>
			<text x="14.54" y="219.46" class="st4" v:langID="1033"><v:paragraph v:horizAlign="1"/><v:tabList/>Port 81</text>		</g>
		<g id="shape70-16" v:mID="70" v:groupContext="shape" transform="translate(479.861,313.303) rotate(155.371)">
			<title>Sheet.70</title>
			<path d="M3.03 228.19 L3.39 228.19 L92.89 228.19" class="st5"/>
		</g>
		<g id="shape71-25" v:mID="71" v:groupContext="shape" transform="translate(332.114,406.375) rotate(-166.759)">
			<title>Sheet.71</title>
			<path d="M3.03 228.19 L3.39 228.19 L85.45 228.19" class="st7"/>
		</g>
		<g id="shape72-34" v:mID="72" v:groupContext="shape" transform="translate(306.472,428.069) rotate(-160.037)">
			<title>Sheet.72</title>
			<path d="M3.03 228.19 L3.39 228.19 L88.98 228.19" class="st7"/>
		</g>
		<g id="shape80-41" v:mID="80" v:groupContext="shape" transform="translate(467.357,-111.609)">
			<title>Rectangle.80</title>
			<desc>IP-B</desc>
			<v:userDefs>
				<v:ud v:nameU="visVersion" v:val="VT0(15):26"/>
			</v:userDefs>
			<v:textBlock v:margins="rect(4,4,4,4)" v:tabSpace="42.5197"/>
			<v:textRect cx="29.3766" cy="202.497" width="58.76" height="51.3831"/>
			<rect x="0" y="176.806" width="58.7532" height="51.3831" rx="2.83465" ry="2.83465" class="st9"/>
			<text x="9.9" y="207.9" class="st10" v:langID="1033"><v:paragraph v:horizAlign="1"/><v:tabList/>IP-B  </text>		</g>
		<g id="shape82-44" v:mID="82" v:groupContext="shape" transform="translate(467.357,-3.8925)">
			<title>Rectangle.82</title>
			<desc>IP-C</desc>
			<v:userDefs>
				<v:ud v:nameU="visVersion" v:val="VT0(15):26"/>
			</v:userDefs>
			<v:textBlock v:margins="rect(4,4,4,4)" v:tabSpace="42.5197"/>
			<v:textRect cx="29.3766" cy="202.497" width="58.76" height="51.3831"/>
			<rect x="0" y="176.806" width="58.7532" height="51.3831" rx="2.83465" ry="2.83465" class="st11"/>
			<text x="9.79" y="207.9" class="st12" v:langID="1033"><v:paragraph v:horizAlign="1"/><v:tabList/>IP-C</text>		</g>
		<g id="shape83-47" v:mID="83" v:groupContext="shape" transform="translate(2.47516,-45.3163)">
			<title>Rectangle.83</title>
			<desc>IP-A</desc>
			<v:userDefs>
				<v:ud v:nameU="visVersion" v:val="VT0(15):26"/>
			</v:userDefs>
			<v:textBlock v:margins="rect(4,4,4,4)" v:tabSpace="42.5197"/>
			<v:textRect cx="29.3766" cy="202.497" width="58.76" height="51.3831"/>
			<rect x="0" y="176.806" width="58.7532" height="51.3831" rx="2.83465" ry="2.83465" class="st13"/>
			<text x="9.92" y="207.9" class="st14" v:langID="1033"><v:paragraph v:horizAlign="1"/><v:tabList/>IP-A  </text>		</g>
		<g id="shape69-50" v:mID="69" v:groupContext="shape" v:layerMember="2"
				transform="translate(306.9,-146.603) rotate(-19.9518) scale(-1,1)">
			<title>Line-arc connector</title>
			<v:userDefs>
				<v:ud v:nameU="Scale" v:val="VT0(1):26"/>
				<v:ud v:nameU="AntiScale" v:val="VT0(1):26"/>
				<v:ud v:nameU="visVersion" v:val="VT0(15):26"/>
			</v:userDefs>
			<path d="M12.61 232.09 L12.95 232.2 A420.84 420.84 -180 0 0 258.45 229.23 L258.79 229.12" class="st15"/>
		</g>
		<g id="shape1-59" v:mID="1" v:groupContext="shape" transform="translate(194.457,-41.1024)">
			<title>Rectangle</title>
			<desc>NAT IP-X</desc>
			<v:userDefs>
				<v:ud v:nameU="visVersion" v:val="VT0(15):26"/>
			</v:userDefs>
			<v:textBlock v:margins="rect(4,4,4,4)" v:tabSpace="42.5197"/>
			<v:textRect cx="42.5197" cy="196.299" width="85.04" height="63.7795"/>
			<rect x="0" y="164.409" width="85.0394" height="63.7795" rx="5.66929" ry="5.66929" class="st17"/>
			<text x="21.78" y="190.9" class="st18" v:langID="1033"><v:paragraph v:horizAlign="1"/><v:tabList/>NAT<v:newlineChar/><tspan
						x="23.05" dy="1.2em" class="st19">IP</tspan><tspan class="st19">-</tspan><tspan class="st19">X</tspan></text>		</g>
		<g id="shape87-65" v:mID="87" v:groupContext="shape" transform="translate(180.621,-74.2032) rotate(-28.5526)">
			<title>Sheet.87</title>
			<desc>Initial Packet</desc>
			<v:textBlock v:margins="rect(4,4,4,4)" v:tabSpace="42.5197"/>
			<v:textRect cx="45.4727" cy="218.189" width="90.95" height="20"/>
			<rect x="0" y="208.189" width="90.9453" height="20" class="st20"/>
			<text x="6.3" y="221.79" class="st21" v:langID="1033"><v:paragraph v:horizAlign="1"/><v:tabList/>Initial Packet</text>		</g>
		<g id="shape88-68" v:mID="88" v:groupContext="shape" transform="translate(493.843,283.059) rotate(151.444)">
			<title>Sheet.88</title>
			<path d="M3.03 228.19 L3.39 228.19 L98.22 228.19" class="st5"/>
		</g>
		<g id="shape89-75" v:mID="89" v:groupContext="shape" transform="translate(40.9057,-120.472)">
			<title>Rectangle.89</title>
			<desc>Src A/8001 Dst B/80</desc>
			<v:userDefs>
				<v:ud v:nameU="visVersion" v:val="VT0(15):26"/>
			</v:userDefs>
			<v:textBlock v:margins="rect(4,4,4,4)" v:tabSpace="42.5197"/>
			<v:textRect cx="76.4592" cy="209.25" width="152.92" height="37.8786"/>
			<rect x="0" y="190.31" width="152.918" height="37.8786" rx="2.83465" ry="2.83465" class="st22"/>
			<text x="4" y="205.65" class="st23" v:langID="1033"><v:paragraph/><v:tabList/>Src<tspan class="st19"> </tspan><tspan
						class="st19">A/8001<v:newlineChar/></tspan><tspan x="4" dy="1.2em" class="st24">Dst</tspan><tspan
						class="st19"> </tspan><tspan class="st19">B/80</tspan></text>		</g>
		<g id="shape90-83" v:mID="90" v:groupContext="shape" transform="translate(265.323,-187.654)">
			<title>Rectangle.90</title>
			<desc>Src X/8001 Dst B/80</desc>
			<v:userDefs>
				<v:ud v:nameU="visVersion" v:val="VT0(15):26"/>
			</v:userDefs>
			<v:textBlock v:margins="rect(4,4,4,4)" v:tabSpace="42.5197"/>
			<v:textRect cx="76.4592" cy="209.25" width="152.92" height="37.8786"/>
			<rect x="0" y="190.31" width="152.918" height="37.8786" rx="2.83465" ry="2.83465" class="st22"/>
			<text x="4" y="205.65" class="st23" v:langID="1033"><v:paragraph/><v:tabList/>Src<tspan class="st19"> </tspan><tspan
						class="st19">X/8001<v:newlineChar/></tspan><tspan x="4" dy="1.2em" class="st24">Dst</tspan><tspan
						class="st19"> </tspan><tspan class="st19">B/80</tspan></text>		</g>
		<g id="shape91-91" v:mID="91" v:groupContext="shape" transform="translate(2.08733,-187.654)">
			<title>Rectangle.91</title>
			<desc>Restricted-Cone</desc>
			<v:textBlock v:margins="rect(4,4,4,4)" v:tabSpace="42.5197"/>
			<v:textRect cx="120.279" cy="209.25" width="240.56" height="37.8786"/>
			<rect x="0" y="190.31" width="240.558" height="37.8786" rx="2.83465" ry="2.83465" class="st25"/>
			<text x="4" y="214.65" class="st18" v:langID="1033"><v:paragraph/><v:tabList/>Restricted-Cone</text>		</g>
		<g id="shape92-94" v:mID="92" v:groupContext="shape" transform="translate(331.228,-21.2598)">
			<title>Permission</title>
			<v:userDefs>
				<v:ud v:nameU="msvShapeCategories" v:prompt="" v:val="VT4(Icon)"/>
				<v:ud v:nameU="visVersion" v:prompt="" v:val="VT0(15):26"/>
			</v:userDefs>
			<path d="M9.21 227.04 A8.07025 8.07025 -180 0 0 17.27 218.98 A8.06988 8.06988 -180 0 0 9.21 210.92 A8.06988 8.06988 -180
						 0 0 1.15 218.98 A8.06988 8.06988 -180 0 0 9.21 227.04 ZM9.21 209.76 A9.21301 9.21301 0 0 1 18.43 218.98
						 A9.21264 9.21264 0 0 1 9.21 228.19 A9.21301 9.21301 0 0 1 0 218.98 A9.21301 9.21301 0 0 1 9.21 209.76 ZM3.45
						 220.13 L3.45 217.82 L14.97 217.82 L14.97 220.13 L3.45 220.13 Z" class="st26"/>
		</g>
		<g id="shape94-96" v:mID="94" v:groupContext="shape" transform="translate(331.228,-45.3543)">
			<title>Permission.94</title>
			<v:userDefs>
				<v:ud v:nameU="msvShapeCategories" v:prompt="" v:val="VT4(Icon)"/>
				<v:ud v:nameU="visVersion" v:prompt="" v:val="VT0(15):26"/>
			</v:userDefs>
			<path d="M9.21 227.04 A8.07025 8.07025 -180 0 0 17.27 218.98 A8.06988 8.06988 -180 0 0 9.21 210.92 A8.06988 8.06988 -180
						 0 0 1.15 218.98 A8.06988 8.06988 -180 0 0 9.21 227.04 ZM9.21 209.76 A9.21301 9.21301 0 0 1 18.43 218.98
						 A9.21264 9.21264 0 0 1 9.21 228.19 A9.21301 9.21301 0 0 1 0 218.98 A9.21301 9.21301 0 0 1 9.21 209.76 ZM3.45
						 220.13 L3.45 217.82 L14.97 217.82 L14.97 220.13 L3.45 220.13 Z" class="st26"/>
		</g>
	</g>
</svg>
